<?xml version="1.0" encoding="UTF-8"?>
<svg width="162px" height="54px" viewBox="0 0 162 54" version="1.1" xmlns="http://www.w3.org/2000/svg" xmlns:xlink="http://www.w3.org/1999/xlink">
    <title>logo</title>
    <g id="logo" stroke="none" stroke-width="1" fill="none" fill-rule="evenodd">
        <text id="&gt;奇趣网站收藏家" font-family="STYuanti-SC-Regular, Yuanti SC" font-size="11" font-weight="normal" letter-spacing="10.0241937" fill="#F94880">
            <tspan x="2" y="50">&gt;奇趣网站收藏家</tspan>
        </text>
        <path d="M1.71271349,1.64185132 C1.31053567,10.5042197 -0.702718453,19.4402204 0.506180022,28.2289566 C0.858706282,30.7918354 5.29986726,36.0572435 6.10856908,33.5998822 L9.15511482,31.8047008 C16.5627065,9.29562708 2.4166578,32.1251708 14.8305976,20.3255776 C15.7130265,19.4868187 16.1085576,18.0910112 16.0307963,16.8760419 C15.843096,13.9433512 5.39422667,13.2262729 9.05716925,11.5670022 C11.570505,10.4284902 15.1859549,12.0109647 17.2100414,10.1358274 C19.0355728,8.44463399 20.7053019,4.00251869 18.5330375,2.78844795 C13.9077709,0.203403046 7.94874378,2.26412242 2.6565969,2.00195965 L1.71271349,1.64185132 Z" id="路径" stroke="#FEE337" fill="#F94880"></path>
        <path d="M19.9330257,4.56852338 C19.8263089,10.5025954 19.1324981,16.4551809 19.6128752,22.3707395 C19.7659713,24.2560263 20.5653902,26.175454 21.8037373,27.6052236 C28.6072771,35.4604478 28.0769385,27.5714162 33.1780928,26.7631841 C34.1861091,26.603473 34.9489285,29.7895334 35.3972178,28.8726685 C37.0781159,25.4348066 40.76563,9.00185531 38.0373625,4.40674264 C29.3970265,-10.1458326 30.8120214,23.0759074 28.8007543,17.6566827 C22.946254,1.88212284 34.9235461,4.4413469 20.9110195,4.17576652 L19.9330257,4.56852338 Z" id="路径-2" stroke="#FEE337" fill="#F94880"></path>
        <path d="M40.7988428,4.56218859 C41.0593812,11.4224391 40.4916914,18.3646289 41.5804582,25.1429402 C43.3987641,36.4631274 51.2074333,28.200429 54.3523654,27.2402424 C59.5753414,25.6456031 71.9123667,54.3934855 61.0808848,5.74581936 C60.4857604,3.07292427 54.5481543,2.55551041 52.9250889,4.76100347 C50.7163396,7.76234962 54.9566921,19.3885246 53.5931654,15.9204635 L50.3892245,17.5256013 C44.3074239,2.05684915 55.5099934,2.91252032 41.9951431,4.67134186 L40.7988428,4.56218859 Z" id="路径-3" stroke="#FEE337" fill="#F94880"></path>
        <path d="M63.4183806,1.95960244 C63.68883,12.5360406 63.0577685,23.1741307 64.2297289,33.6889151 C64.6471638,37.4341251 68.7145652,33.1372137 68.7377084,33.0353115 C69.41534,30.0516201 66.5287616,24.7311704 69.4692416,23.8854895 C72.5611902,22.9962463 73.5277277,28.9560788 76.0712665,30.9261829 C92.3180506,43.5101692 84.7155232,5.45439085 83.5474862,1.6604531 C82.6469824,-1.26450173 75.9787855,0.175282108 74.4397714,2.8205995 C72.2108566,6.65174476 79.4422823,17.1942153 75.1474229,16.0988081 C56.4429244,11.3282113 77.9273326,-4.03680548 62.8439636,2.51642244 C62.4693653,2.67917307 62.9596011,3.32504738 63.0174199,3.72935989" id="路径-4" stroke="#FEE337" fill="#F94880"></path>
        <path d="M93.6645158,25.498647 C89.3235473,26.5236232 80.7855215,33.6814872 89.9276629,36.1530142 C96.2623562,37.8655632 103.510303,27.5687348 94.1691732,25.0719192 L93.6645158,25.498647 Z" id="路径-5" stroke="#FEE337" fill="#F94880"></path>
        <path d="M101.382066,1.63394539 C101.095905,10.7452221 100.274079,19.8554199 100.523583,28.9677738 C100.561724,30.3607685 105.672488,35.9032787 107.228676,33.3500603 C109.151234,30.1957431 106.332902,25.645179 107.870967,22.2865623 C110.29809,16.9865416 119.656778,29.4569042 114.207151,14.2673489 C113.682233,12.8042609 108.329307,14.0091156 109.664606,13.2134131 L107.696882,11.0376672 C110.178406,9.55893154 114.217531,11.4325651 116.191844,9.32384318 C118.077156,7.31018044 119.409346,2.45248704 117.011362,1.08906623 C112.750456,-1.33355625 107.211079,1.31740852 102.310937,1.43157966 L101.382066,1.63394539 Z" id="路径-6" stroke="#FEE337" fill="#F94880"></path>
        <path d="M119.079641,5.03268413 C119.547428,12.2868466 119.574079,19.5829896 120.483003,26.7951703 C121.702347,36.4704879 129.748408,27.3726409 131.995853,26.7725455 C136.072008,25.6841626 148.362775,60.5912237 138.356548,3.97937679 C137.98443,1.87406162 133.061819,2.32603706 131.944948,4.14906234 C129.985181,7.34791222 132.060465,11.7017841 131.36676,15.3885305 C131.170916,16.4293567 129.728915,18.8513839 129.365727,17.8565125 C123.544304,1.91001493 133.415957,2.74678536 120.079528,4.86551244 L119.079641,5.03268413 Z" id="路径-7" stroke="#FEE337" fill="#F94880"></path>
        <path d="M161.038478,1.47568439 C160.688423,8.09677269 159.907539,14.7091058 159.988313,21.3389493 C160.035788,25.2356407 162.503197,29.1977243 161.421842,32.9416702 C160.984498,34.455873 157.996329,33.6238558 156.698299,32.7298775 C152.988357,30.1747696 151.685567,23.030265 147.182082,23.1344738 C146.610477,23.1477005 150.039416,33.476697 145.67628,34.8584885 C139.729686,36.7417558 137.41313,28.0846825 142.141792,1.44928886 C142.488779,-0.505203668 146.825137,0.972659823 147.988402,2.58115433 C150.69003,6.31680575 147.895951,14.8564056 152.432278,15.678365 C156.429392,16.4026216 151.119164,7.04558538 153.121704,3.51128254 C154.281917,1.46361281 157.748464,2.64567674 160.061843,2.21287384 L161.038478,1.47568439 Z" id="路径-8" stroke="#FEE337" fill="#F94880"></path>
    </g>
</svg>